<?xml version="1.0" standalone="no"?>
<!DOCTYPE svg PUBLIC "-//W3C//DTD SVG 20010904//EN"
 "http://www.w3.org/TR/2001/REC-SVG-20010904/DTD/svg10.dtd">
<svg version="1.0" xmlns="http://www.w3.org/2000/svg"
 width="700.000000pt" height="700.000000pt" viewBox="0 0 700.000000 700.000000"
 preserveAspectRatio="xMidYMid meet">
<metadata>
Created by potrace 1.14, written by Peter Selinger 2001-2017
</metadata>
<g transform="translate(0.000000,700.000000) scale(0.100000,-0.100000)"
fill="#000000" stroke="none">
<path d="M3409 6945 c-2 -1 -26 -6 -54 -9 -132 -18 -304 -94 -416 -185 -41
-32 -662 -648 -1381 -1367 -957 -960 -1317 -1326 -1347 -1373 -70 -109 -118
-227 -137 -336 -4 -22 -8 -49 -10 -60 -6 -30 -5 -206 1 -239 34 -172 82 -289
171 -412 63 -87 2679 -2695 2752 -2744 153 -102 320 -153 502 -153 114 -1 130
1 225 23 109 25 194 62 300 133 74 49 2662 2630 2739 2732 92 121 141 230 171
380 15 72 20 220 10 285 -24 169 -84 312 -184 445 -9 11 -611 617 -1339 1346
-1390 1392 -1383 1386 -1542 1457 -63 29 -144 55 -205 67 -34 7 -251 16 -256
10z"/>
</g>
</svg>
